<svg xmlns="http://www.w3.org/2000/svg" width="20" height="20" viewBox="0 0 20 20">
  <g id="Group_2599" data-name="Group 2599" transform="translate(-43 -482)">
    <path id="Icon_feather-play" data-name="Icon feather-play" d="M7.5,4.5l4,2.5-4,2.5Z" transform="translate(43.5 488)" fill="#fd6f21"/>
    <g id="Group_2596" data-name="Group 2596" transform="translate(0 -1)">
      <path id="Path_43" data-name="Path 43" d="M17.805,11.32H2.441a1.361,1.361,0,0,0-1.316,1.394v9.212A1.361,1.361,0,0,0,2.441,23.32H17.809a1.361,1.361,0,0,0,1.316-1.394V12.715A1.367,1.367,0,0,0,17.805,11.32Z" transform="translate(42.875 478.68)" fill="none" stroke="#fff" stroke-width="2"/>
      <path id="Path_8078" data-name="Path 8078" d="M16100.266,3625.505h10" transform="translate(-16052.266 -3141.505)" fill="none" stroke="#fff" stroke-linecap="round" stroke-width="2"/>
      <path id="Path_8079" data-name="Path 8079" d="M16100.268,3625.505h14" transform="translate(-16054.266 -3138.505)" fill="none" stroke="#fff" stroke-linecap="round" stroke-width="2"/>
    </g>
  </g>
</svg>
