<svg xmlns="http://www.w3.org/2000/svg" width="28" height="22" viewBox="0 0 28 22">
  <path id="Icon_awesome-credit-card" data-name="Icon awesome-credit-card" d="M0,21.893A2.346,2.346,0,0,0,2.333,24.25H25.667A2.346,2.346,0,0,0,28,21.893V13.25H0Zm9.333-3.339a.588.588,0,0,1,.583-.589h6.611a.588.588,0,0,1,.583.589v1.964a.588.588,0,0,1-.583.589H9.917a.588.588,0,0,1-.583-.589Zm-6.222,0a.588.588,0,0,1,.583-.589h3.5a.588.588,0,0,1,.583.589v1.964a.588.588,0,0,1-.583.589h-3.5a.588.588,0,0,1-.583-.589ZM28,4.607V6.964H0V4.607A2.346,2.346,0,0,1,2.333,2.25H25.667A2.346,2.346,0,0,1,28,4.607Z" transform="translate(0 -2.25)" fill="#fff" opacity="0.6"/>
</svg>
