<svg xmlns="http://www.w3.org/2000/svg" width="18" height="20" viewBox="0 0 18 20">
  <g id="Icon_feather-home" data-name="Icon feather-home" transform="translate(1 1)">
    <path id="Rectangle_353" data-name="Rectangle 353" d="M2,0H4A2,2,0,0,1,6,2V9A0,0,0,0,1,6,9H0A0,0,0,0,1,0,9V2A2,2,0,0,1,2,0Z" transform="translate(5 9)" fill="#fd6f21"/>
    <path id="Path_48" data-name="Path 48" d="M4.5,9.3l8-6.3,8,6.3v9.9A1.789,1.789,0,0,1,18.722,21H6.278A1.789,1.789,0,0,1,4.5,19.2Z" transform="translate(-4.5 -3)" fill="none" stroke="#fff" stroke-linecap="round" stroke-linejoin="round" stroke-width="2"/>
  </g>
</svg>
