<svg xmlns="http://www.w3.org/2000/svg" width="19" height="12" viewBox="0 0 19 12">
  <g id="Icon_ionic-ios-eye" data-name="Icon ionic-ios-eye" transform="translate(-2.252 -7.875)">
    <path id="Path_11559" data-name="Path 11559" d="M11.742,7.875c-3.41,0-6.1,2.108-9.313,5.554a.65.65,0,0,0,0,.888C5.177,17.3,7.6,19.875,11.742,19.875c4.088,0,7.154-3.238,9.334-5.583a.645.645,0,0,0,.021-.863C18.875,10.783,15.8,7.875,11.742,7.875Zm.187,9.746a3.751,3.751,0,1,1,3.634-3.571A3.785,3.785,0,0,1,11.928,17.621Z" fill="#fff"/>
    <path id="Path_11560" data-name="Path 11560" d="M16.215,14.208a1.927,1.927,0,0,1,.131-.7c-.042,0-.085,0-.131,0a2.669,2.669,0,1,0,2.714,2.667c0-.054,0-.108,0-.163a1.909,1.909,0,0,1-.772.163A1.951,1.951,0,0,1,16.215,14.208Z" transform="translate(-4.465 -2.292)" fill="#fff"/>
  </g>
</svg>
