<svg xmlns="http://www.w3.org/2000/svg" width="14" height="19" viewBox="0 0 14 19">
  <path id="Icon_awesome-file-download" data-name="Icon awesome-file-download" d="M8.167,5.047V0H.875A.881.881,0,0,0,0,.891V18.109A.881.881,0,0,0,.875,19h12.25A.881.881,0,0,0,14,18.109V5.938H9.042A.886.886,0,0,1,8.167,5.047Zm2.787,7.843L7.439,16.442a.614.614,0,0,1-.876,0L3.047,12.89a.6.6,0,0,1,.41-1.015H5.833V8.906a.588.588,0,0,1,.583-.594H7.583a.588.588,0,0,1,.583.594v2.969h2.376A.6.6,0,0,1,10.954,12.89ZM13.745,3.9,10.176.26A.867.867,0,0,0,9.556,0H9.333V4.75H14V4.524A.9.9,0,0,0,13.745,3.9Z" fill="#fff"/>
</svg>
