<svg xmlns="http://www.w3.org/2000/svg" width="19.337" height="19.5" viewBox="0 0 19.337 19.5">
  <g id="Group_50" data-name="Group 50" transform="translate(1.338 0.5)">
    <g id="Icon_ionic-ios-albums" data-name="Icon ionic-ios-albums" transform="translate(1.924 0)">
      <path id="Path_39" data-name="Path 39" d="M17.861,8.394H5.006A.507.507,0,0,1,4.5,7.888h0a.507.507,0,0,1,.506-.506H17.861a.507.507,0,0,1,.506.506h0A.507.507,0,0,1,17.861,8.394Z" transform="translate(-4.5 -4.213)" fill="none" stroke="#fd9a27" stroke-width="1"/>
      <path id="Path_40" data-name="Path 40" d="M17.843,4.456H7.212a.465.465,0,0,1-.462-.462V3.908a.465.465,0,0,1,.462-.462H17.843a.465.465,0,0,1,.462.462v.087A.465.465,0,0,1,17.843,4.456Z" transform="translate(-5.594 -3.445)" fill="none" stroke="#fd9a27" stroke-width="1"/>
    </g>
    <path id="Path_43" data-name="Path 43" d="M17.191,11.32H2.392a1.271,1.271,0,0,0-1.267,1.267v8.374a1.271,1.271,0,0,0,1.267,1.267h14.8a1.271,1.271,0,0,0,1.267-1.267V12.588A1.277,1.277,0,0,0,17.191,11.32Z" transform="translate(-1.463 -4.229)" fill="none" stroke="#fff" stroke-width="2"/>
  </g>
</svg>
