<svg xmlns="http://www.w3.org/2000/svg" width="20" height="20" viewBox="0 0 20 20">
  <g id="Group_2600" data-name="Group 2600" transform="translate(-43 -626)">
    <path id="Icon_ionic-ios-settings" data-name="Icon ionic-ios-settings" d="M21.014,13.5a2.316,2.316,0,0,1,1.486-2.16,9.177,9.177,0,0,0-1.111-2.676,2.348,2.348,0,0,1-.942.2,2.311,2.311,0,0,1-2.114-3.252A9.155,9.155,0,0,0,15.661,4.5a2.314,2.314,0,0,1-4.322,0A9.182,9.182,0,0,0,8.663,5.611L8.2,8.175l-.013.013a2.311,2.311,0,0,1-1.636.675,2.271,2.271,0,0,1-.942-.2A9.38,9.38,0,0,0,4.5,11.342a2.315,2.315,0,0,1,0,4.321,9.177,9.177,0,0,0,1.111,2.676,2.312,2.312,0,0,1,3.052,3.051A9.236,9.236,0,0,0,11.344,22.5a2.31,2.31,0,0,1,4.313,0,9.183,9.183,0,0,0,2.677-1.111,2.314,2.314,0,0,1,3.052-3.051A9.231,9.231,0,0,0,22.5,15.663,2.327,2.327,0,0,1,21.014,13.5Z" transform="translate(39.5 622.5)" fill="none" stroke="#fff" stroke-linecap="round" stroke-linejoin="round" stroke-width="2"/>
    <path id="Icon_ionic-ios-settings-2" data-name="Icon ionic-ios-settings" d="M12.793,15.744a3,3,0,1,1,3-3A3,3,0,0,1,12.793,15.744Z" transform="translate(40.208 623.256)" fill="#fd6f21"/>
  </g>
</svg>
